<svg id="Capa_1" enable-background="new 0 0 512 512" height="512" viewBox="0 0 512 512" width="512" xmlns="http://www.w3.org/2000/svg" xmlns:xlink="http://www.w3.org/1999/xlink"><linearGradient id="SVGID_1_" gradientUnits="userSpaceOnUse" x1="256" x2="256" y1="512" y2="0"><stop offset="0" stop-color="#fd5900"/><stop offset="1" stop-color="#ffde00"/></linearGradient><linearGradient id="SVGID_2_" gradientUnits="userSpaceOnUse" x1="256" x2="256" y1="421" y2="91"><stop offset="0" stop-color="#ffe59a"/><stop offset="1" stop-color="#ffffd5"/></linearGradient><g><g><g><path d="m416.605 34.395-30-30c-5.859-5.859-15.352-5.859-21.211 0l-19.394 19.394-19.395-19.394c-5.859-5.859-15.352-5.859-21.211 0l-19.394 19.394-19.395-19.394c-5.859-5.859-15.352-5.859-21.211 0l-19.394 19.394-19.395-19.394c-5.859-5.859-15.352-5.859-21.211 0l-19.394 19.394-19.395-19.394c-5.859-5.859-15.352-5.859-21.211 0l-30 30c-2.812 2.812-4.394 6.621-4.394 10.605v452c0 8.291 6.709 15 15 15h300c8.291 0 15-6.709 15-15v-452c0-3.984-1.582-7.793-4.395-10.605z" fill="url(#SVGID_1_)"/></g></g><g><g><path d="m241 286c0 8.291 6.709 15 15 15s15-6.709 15-15v-17.763c17.423-6.213 30-22.707 30-42.237 0-34.614-25.972-40.854-41.499-44.59-16.597-3.984-18.501-5.566-18.501-15.41-.029-13.052 19.16-19.497 26.997-8.994 4.995 6.636 14.355 7.969 21.006 2.988 6.621-4.966 7.954-14.37 2.988-21.006-5.334-7.11-12.77-12.133-20.991-15.077v-17.911c0-8.291-6.709-15-15-15s-15 6.709-15 15v17.763c-17.423 6.213-30 22.707-30 42.237 0 34.614 25.972 40.854 41.499 44.59 16.597 3.984 18.501 5.566 18.501 15.41 0 8.276-6.724 15-15 15-4.761 0-9.141-2.183-11.997-6.006-4.966-6.636-14.326-7.91-21.006-2.988-6.621 4.966-7.954 14.37-2.988 21.006 5.334 7.11 12.77 12.133 20.991 15.077zm0 60c0 8.291 6.709 15 15 15h90c8.291 0 15-6.709 15-15s-6.709-15-15-15h-90c-8.291 0-15 6.709-15 15zm105 45h-90c-8.291 0-15 6.709-15 15s6.709 15 15 15h90c8.291 0 15-6.709 15-15s-6.709-15-15-15zm-150-60h-30c-8.291 0-15 6.709-15 15s6.709 15 15 15h30c8.291 0 15-6.709 15-15s-6.709-15-15-15zm0 60h-30c-8.291 0-15 6.709-15 15s6.709 15 15 15h30c8.291 0 15-6.709 15-15s-6.709-15-15-15z" fill="url(#SVGID_2_)"/></g></g></g></svg>