<svg width="30" height="60" viewBox="0 0 30 60" fill="none" xmlns="http://www.w3.org/2000/svg">
<path d="M0.957885 31.6305H7.46786V58.431C7.46786 58.9601 7.89661 59.3889 8.42575 59.3889H19.4636C19.9928 59.3889 20.4215 58.9601 20.4215 58.431V31.7568H27.9053C28.3919 31.7568 28.8013 31.3916 28.8569 30.9083L29.9935 21.0417C30.0247 20.7702 29.9387 20.4984 29.7571 20.2947C29.5753 20.0909 29.3151 19.9742 29.0421 19.9742H20.4219V13.7893C20.4219 11.9249 21.4258 10.9795 23.4059 10.9795C23.6881 10.9795 29.0421 10.9795 29.0421 10.9795C29.5713 10.9795 30 10.5505 30 10.0216V0.964973C30 0.435838 29.5713 0.00708835 29.0421 0.00708835H21.2746C21.2198 0.00440627 21.0982 0 20.9189 0C19.5711 0 14.8865 0.264568 11.186 3.66889C7.08586 7.44142 7.6558 11.9584 7.79201 12.7416V19.974H0.957885C0.428749 19.974 0 20.4028 0 20.9319V30.6724C0 31.2016 0.428749 31.6305 0.957885 31.6305Z" fill="white"/>
</svg>
