<svg width="75" height="75" viewBox="0 0 75 75" fill="none" xmlns="http://www.w3.org/2000/svg">
<path d="M47.3437 26.25C44.9486 26.2418 42.5753 26.7059 40.3598 27.6159C38.1442 28.5258 36.1298 29.8637 34.4318 31.553C32.7338 33.2422 31.3856 35.2497 30.4643 37.4606C29.5429 39.6715 29.0666 42.0423 29.0625 44.4375V62.8125C29.0625 63.5584 29.3588 64.2738 29.8863 64.8012C30.4137 65.3287 31.1291 65.625 31.875 65.625H38.4375C39.1834 65.625 39.8988 65.3287 40.4262 64.8012C40.9537 64.2738 41.25 63.5584 41.25 62.8125V44.4375C41.2494 43.5856 41.4283 42.7432 41.7751 41.9651C42.1219 41.187 42.6288 40.4907 43.2627 39.9217C43.8966 39.3526 44.6434 38.9236 45.4542 38.6624C46.2651 38.4013 47.1219 38.314 47.9688 38.4062C49.4875 38.5975 50.8833 39.3396 51.8913 40.4916C52.8993 41.6436 53.4495 43.1255 53.4375 44.6562V62.8125C53.4375 63.5584 53.7338 64.2738 54.2613 64.8012C54.7887 65.3287 55.5041 65.625 56.25 65.625H62.8125C63.5584 65.625 64.2738 65.3287 64.8012 64.8012C65.3287 64.2738 65.625 63.5584 65.625 62.8125V44.4375C65.6209 42.0423 65.1446 39.6715 64.2232 37.4606C63.3019 35.2497 61.9537 33.2422 60.2557 31.553C58.5577 29.8637 56.5433 28.5258 54.3277 27.6159C52.1122 26.7059 49.7389 26.2418 47.3437 26.25Z" fill="white"/>
<path d="M20.625 29.0625H12.1875C10.6342 29.0625 9.375 30.3217 9.375 31.875V62.8125C9.375 64.3658 10.6342 65.625 12.1875 65.625H20.625C22.1783 65.625 23.4375 64.3658 23.4375 62.8125V31.875C23.4375 30.3217 22.1783 29.0625 20.625 29.0625Z" fill="white"/>
<path d="M16.4062 23.4375C20.2895 23.4375 23.4375 20.2895 23.4375 16.4062C23.4375 12.523 20.2895 9.375 16.4062 9.375C12.523 9.375 9.375 12.523 9.375 16.4062C9.375 20.2895 12.523 23.4375 16.4062 23.4375Z" fill="white"/>
</svg>
