<svg id="Capa_1" enable-background="new 0 0 512 512" height="512" viewBox="0 0 512 512" width="512" xmlns="http://www.w3.org/2000/svg" xmlns:xlink="http://www.w3.org/1999/xlink"><linearGradient id="SVGID_1_" gradientUnits="userSpaceOnUse" x1="256" x2="256" y1="481.073" y2="16.073"><stop offset="0" stop-color="#fd3a84"/><stop offset="1" stop-color="#ffa68d"/></linearGradient><linearGradient id="SVGID_2_" gradientUnits="userSpaceOnUse" x1="256" x2="256" y1="496.073" y2="15.927"><stop offset="0" stop-color="#ffc2cc"/><stop offset="1" stop-color="#fff2f4"/></linearGradient><g><g><g><path d="m367.27 122.172 60 42.905c9.887 7.094 23.73 0 23.73-12.202v-121.802c0-8.291-6.709-15-15-15h-60c-8.291 0-15 6.709-15 15v78.896c0 4.849 2.344 9.39 6.27 12.203zm77.618 92.411c-22.439-16.17-58.627-41.608-179.939-128.348-5.214-3.728-12.428-3.886-17.65-.17l-179.993 128.075c-3.956 2.815-6.306 7.37-6.306 12.226v254.707h390v-254.399c0-4.823-2.199-9.272-6.112-12.091z" fill="url(#SVGID_1_)"/></g></g><g><g><path d="m256 421.073c8.291 0 15-6.709 15-15v-17.763c17.422-6.213 30-22.707 30-42.237 0-34.614-25.972-40.854-41.499-44.59-16.597-3.984-18.501-5.566-18.501-15.41-.015-13.052 19.175-19.497 26.997-8.994 4.995 6.636 14.385 7.969 21.006 2.988 6.621-4.966 7.954-14.37 2.988-21.006-5.334-7.11-12.77-12.133-20.991-15.077v-17.911c0-8.291-6.709-15-15-15s-15 6.709-15 15v17.763c-17.422 6.213-30 22.707-30 42.237 0 34.614 25.972 40.854 41.499 44.59 16.597 3.984 18.501 5.566 18.501 15.41 0 8.276-6.724 15-15 15-4.761 0-9.141-2.183-11.997-6.006-4.951-6.636-14.341-7.925-21.006-2.988-6.621 4.966-7.954 14.37-2.988 21.006 5.334 7.11 12.77 12.133 20.991 15.077v17.911c0 8.291 6.709 15 15 15zm-211-164c7.5 0 16.132-2.963 24.906-7.826 7.326-5.495 80.241-57.155 186.079-132.539 122.939 87.868 150.645 107.269 171.372 122.227 10.446 7.358 23.242 18.139 39.643 18.139 24.814 0 45-20.186 45-45 0-16.245-9.657-32.245-22.284-39.32l-211.655-151.012c-13.857-7.412-28.608-8.438-45.776 1.025l-208.682 149.151c-13.946 7.91-23.603 23.91-23.603 40.155 0 24.815 20.186 45 45 45zm452 209h-482c-8.291 0-15 6.709-15 15s6.709 15 15 15h482c8.291 0 15-6.709 15-15s-6.709-15-15-15z" fill="url(#SVGID_2_)"/></g></g></g></svg>