<svg id="Capa_1" enable-background="new 0 0 512.002 512.002" height="512" viewBox="0 0 512.002 512.002" width="512" xmlns="http://www.w3.org/2000/svg" xmlns:xlink="http://www.w3.org/1999/xlink"><linearGradient id="SVGID_1_" gradientUnits="userSpaceOnUse" x1="197.4" x2="197.4" y1="481.001" y2="31.001"><stop offset="0" stop-color="#fd3a84"/><stop offset="1" stop-color="#ffa68d"/></linearGradient><linearGradient id="SVGID_2_" gradientUnits="userSpaceOnUse" x1="401.325" x2="401.325" y1="450.401" y2="61.582"><stop offset="0" stop-color="#ffc2cc"/><stop offset="1" stop-color="#fff2f4"/></linearGradient><g id="Pie_chart_1_"><g><g><path d="m343.446 423.359-72.759-64.673c-4.014-3.574-9.624-4.731-14.707-3.018-10.62 3.53-21.738 5.332-33.076 5.332-47.886 0-89.707-32.388-101.689-78.75-1.699-6.621-7.676-11.25-14.517-11.25h-91.67c-9.1 0-16.148 8.063-14.854 17.124 15.732 109.951 111.489 192.876 222.729 192.876 41.997 0 82.969-11.646 118.491-33.691 8.581-5.304 9.496-17.367 2.052-23.95zm47.563-316.816c-42.656-48.003-103.93-75.542-168.105-75.542-111.094 0-206.851 82.91-222.744 192.847-1.323 9.074 5.739 17.153 14.839 17.153h91.802c6.76 0 13.01-5.518 14.734-12.054 12.115-45.933 53.694-77.945 101.37-77.945 26.211 0 51.391 9.803 70.611 27.215 11.372 10.302 29.13 9.136 40.602-1.055l55.647-49.436c6.178-5.511 6.761-14.996 1.244-21.183z" fill="url(#SVGID_1_)"/></g></g><g><g><path d="m435.445 66.342c-5.404-6.032-14.89-6.316-20.94-.932l-123.857 110.249c23.851 20.219 37.256 49.603 37.256 80.342 0 25.967-9.566 50.966-26.913 70.291-5.381 5.994-4.372 15.364 1.645 20.72l111.885 99.595c6.14 5.479 15.623 4.984 21.167-1.216 46.567-52.119 76.315-119.385 76.315-189.39-.001-70.126-29.837-137.503-76.558-189.659z" fill="url(#SVGID_2_)"/></g></g></g></svg>