<svg id="Capa_1" enable-background="new 0 0 512 512" height="512" viewBox="0 0 512 512" width="512" xmlns="http://www.w3.org/2000/svg" xmlns:xlink="http://www.w3.org/1999/xlink"><linearGradient id="SVGID_1_" gradientUnits="userSpaceOnUse" x1="256" x2="256" y1="361" y2="151"><stop offset="0" stop-color="#c3ffe8"/><stop offset=".9973" stop-color="#f0fff4"/></linearGradient><linearGradient id="SVGID_2_" gradientUnits="userSpaceOnUse" x1="256" x2="256" y1="512" y2="0"><stop offset="0" stop-color="#00b59c"/><stop offset="1" stop-color="#9cffac"/></linearGradient><g><g><g><path d="m259.501 241.41c-16.597-3.984-18.501-5.566-18.501-15.41 0-13.052 19.175-19.497 26.997-8.994 4.966 6.621 14.385 7.969 21.006 2.988 6.621-4.966 7.954-14.37 2.988-21.006-5.334-7.11-12.77-12.133-20.991-15.077v-17.911c0-8.291-6.709-15-15-15s-15 6.709-15 15v17.763c-17.422 6.212-30 22.707-30 42.237 0 34.614 25.972 40.854 41.499 44.59 16.597 3.984 18.501 5.566 18.501 15.41 0 8.276-6.724 15-15 15-4.761 0-9.141-2.183-11.997-6.006-4.966-6.621-14.341-7.925-21.006-2.988-6.621 4.966-7.954 14.37-2.988 21.006 5.334 7.11 12.77 12.133 20.991 15.077v17.911c0 8.291 6.709 15 15 15s15-6.709 15-15v-17.763c17.422-6.212 30-22.707 30-42.237 0-34.614-25.972-40.854-41.499-44.59z" fill="url(#SVGID_1_)"/></g></g><g><g><path d="m512 257c0-127.778-95.317-236.499-221.719-252.891-7.734-1.084-14.634 3.838-16.479 11.235l-14.751 59.019c-2.229 8.856 3.961 17.736 13.213 18.574 85.371 7.588 149.736 78.121 149.736 164.063 0 55.327-27.803 106.758-73.374 137.168l-19.629-26.162c-7.494-10.035-23.497-6.949-26.543 5.361l-30 120c-2.374 9.434 4.781 18.633 14.546 18.633h120c12.374 0 19.387-14.162 11.997-23.994l-16.216-21.636c68.701-47.724 109.219-124.834 109.219-209.37zm-272.264 162.063c-85.371-7.588-149.736-78.121-149.736-164.063 0-55.327 27.803-106.758 73.374-137.168l19.629 26.162c7.429 9.917 23.474 7.046 26.543-5.361l30-120c2.374-9.434-4.781-18.633-14.546-18.633h-120c-12.374 0-19.387 14.162-11.997 23.994l16.216 21.636c-68.701 47.724-109.219 124.834-109.219 209.37 0 127.778 95.317 236.499 221.719 252.891 7.466.996 14.619-3.776 16.479-11.235l14.751-59.019c2.229-8.856-3.961-17.736-13.213-18.574z" fill="url(#SVGID_2_)"/></g></g></g></svg>